<svg id="完成" xmlns="http://www.w3.org/2000/svg" viewBox="0 0 2300 870"><defs><style>.cls-1{fill:#09f;}.cls-2{fill:#f31d2b;}</style></defs><title>画板 1</title><polygon class="cls-1" points="479.82 583.82 482.96 583.72 481.92 582.17 479.82 583.82"/><path class="cls-1" d="M483.38,581l-1,.77,1,1.42Z"/><path class="cls-1" d="M454.34,601.19h-2.25s-.12.77.77.79A2,2,0,0,0,454.34,601.19Z"/><path class="cls-1" d="M410.91,621.93a4.4,4.4,0,0,1,2.72.05h.07l2.71-1h-5.51Z"/><path class="cls-1" d="M404,625.06h3.59a4.86,4.86,0,0,1,2-2.58H404Z"/><path class="cls-1" d="M476.38,581.32a6.41,6.41,0,0,0-1.35.61l1.34,2.49h0c.85-.35,1.45-.54,1.45-.54h.31l4.13-2.84h-3.44A6.57,6.57,0,0,0,476.38,581.32Z"/><rect class="cls-1" x="404" y="621" width="6.08" height="0.98"/><path class="cls-1" d="M514.83,581H507.3v1.08h5.3v1.19h.47v-1.23h1.77Z"/><path class="cls-1" d="M514.83,583.3v-.75h-1.31v.75Z"/><path class="cls-1" d="M418.5,615.17H405.67c.92,2.21-1.67,3.08-1.67,3.08v2.33h6.08V620h.83v.58h7.59Z"/><path class="cls-1" d="M470,586.48a3.89,3.89,0,0,0,.27.6,10.36,10.36,0,0,0,.5.92c.59-.49,1.08-.9,1.39-1.17a14.46,14.46,0,0,1,3.54-2.13h0l-1.25-2.41C471.74,584,469.76,585.26,470,586.48Z"/><path class="cls-1" d="M515.67,582.07h1.68l-1.68-.75Z"/><path class="cls-1" d="M500.21,581v1.11h6.56V581Z"/><path class="cls-1" d="M483.9,581.15v2.54l6.79-.22V581Z"/><path class="cls-1" d="M496.4,582.11h3.29V581h-8.42v2.43l5-.16h.17Z"/><path class="cls-1" d="M389.55,622.48H373.42v4.81h1.48v-2.46s4-1.56,11-.1v2.83h1.41a4.83,4.83,0,0,1,2.22-5.08Z"/><path class="cls-1" d="M392.11,621.74a4.82,4.82,0,0,1,1.44.24h1a4.81,4.81,0,0,1,5.71,0v-1H373.42v1h17.25A4.82,4.82,0,0,1,392.11,621.74Z"/><rect class="cls-1" x="369.24" y="621" width="3.76" height="0.98"/><path class="cls-1" d="M522,582.07v-1h-5.11l2.12,1Z"/><path class="cls-1" d="M374.33,607v.58l19.42,3.29-18.43-5a1,1,0,0,1,0,.11A1,1,0,0,1,374.33,607Z"/><rect class="cls-1" x="369.24" y="622.48" width="3.76" height="4.81"/><polygon class="cls-1" points="391.5 615.54 391.44 615.17 373.42 615.17 373.42 620.58 400.29 620.58 400.29 617.88 395.96 617.88 395.96 615.54 391.5 615.54"/><polygon class="cls-1" points="368.92 612.13 369.85 612.13 369.85 613.54 369.24 614.16 369.24 614.58 373 614.58 373 614.08 373.42 614.08 373.42 614.58 391.33 614.58 389.79 612.79 390.5 612.46 392.13 614.08 394.57 614.08 394.25 613.98 393.96 613 393.04 613 393.42 612.33 394.25 612.33 394.25 611.96 373.42 608.96 368.92 612.13"/><path class="cls-1" d="M448.46,615.17H419.08v5.42h1.08v-1.67h.58v1.67h.79a4.78,4.78,0,0,1,6.06,0h9.73a4.79,4.79,0,0,1,5-.67,4.8,4.8,0,0,1,4.77-.63v-2.7h.85V617Z"/><path class="cls-1" d="M436.86,621h-8.78a4.87,4.87,0,0,1,.72,1h7.34A4.87,4.87,0,0,1,436.86,621Z"/><path class="cls-1" d="M437,627.88a4.86,4.86,0,0,1-1.11-5.39h-6.8a4.86,4.86,0,0,1,.36,1.7h4.18v3.69Z"/><rect class="cls-1" x="369.24" y="615.17" width="3.76" height="5.42"/><path class="cls-1" d="M405.43,614.58H418.5v-.5h.58v.5h29.54l1.79-6.25-1.53-.37.19-.58,1.54.28,1.13-3.95a7.75,7.75,0,0,1-1-.75c-.51-.46-.79-.72-.85-1.13a1.24,1.24,0,0,1,.16-.75l-42.64-.75-1.56,2.5v.38a6.83,6.83,0,0,1-1.2,3.33l.6.63s-.77,1.29-1.23,1.88S404.56,612.41,405.43,614.58Z"/><polygon class="cls-1" points="402.53 614.58 403.52 614.58 403.13 613.38 402.53 614.58"/><polygon class="cls-1" points="401.75 616.17 404.04 616.17 403.71 615.17 402.24 615.17 401.75 616.17"/><path class="cls-1" d="M366.42,611.08H367l5.56-3.58h1.13v-.79a1,1,0,0,1-.31-.54Z"/><polygon class="cls-1" points="750.67 590.25 754.42 590.25 754.42 587.09 750.68 587.33 750.67 587.09 750.67 590.25"/><polygon class="cls-1" points="754.92 590.25 757.13 590.25 757.13 591.23 757.75 591.33 757.75 586.88 754.92 587.06 754.92 590.25"/><polygon class="cls-1" points="757.75 579.17 754.92 579.27 754.92 582.54 757.75 583.08 757.75 579.17"/><polygon class="cls-1" points="754.92 586.56 757.73 586.38 757.75 586.63 757.75 583.59 754.92 583.05 754.92 586.56"/><path class="cls-1" d="M696.17,548v35.33h4.17v5h1.83V575.28a4.78,4.78,0,0,1,0-5.27V548.67h-3V548Z"/><polygon class="cls-1" points="754.42 579.28 750.67 579.42 750.71 581.75 754.42 582.45 754.42 579.28"/><polygon class="cls-1" points="750.67 586.83 754.42 586.59 754.42 582.96 750.67 582.25 750.67 586.83"/><polygon class="cls-1" points="750.67 572.87 772.17 548 770.24 548.64 769.5 550.04 750.67 571.98 750.67 572.87"/><polygon class="cls-1" points="750.67 569.5 768.33 549.27 750.67 555.14 750.67 569.5"/><path class="cls-1" d="M587.93,563l-1.91,0,.72,1.06Z"/><path class="cls-1" d="M676.65,552.46c-3.58-1.56-6.33-2.63-7.77-3.18v1.11a75.51,75.51,0,0,0,7.72,3.2,2.33,2.33,0,0,1,.47.2,3.26,3.26,0,0,1,1.4,1.95l4.35,2.21V561h2L682,554.9l-.21-.1-1.06,2.09-.58-.29,1.16-2C680.14,554,678.54,553.28,676.65,552.46Z"/><path class="cls-1" d="M566.42,499.17q-7.4,8.28-30,8.26H30.93V671.86H71.08v-.54l3.84-27.46-7.66-7H64.5V635l1.59,0,.08-1.48,5.23,0,0-.56h5.37v-1.23l.65,0,.41-5h1.89l-.79-1.77H74.31l-.29-.44-1.6,0v-.62h6.4l.21.56h1.77l.79,1.33.44-.12h.54l.63.9v.21h1.27l0,.73-1,.27.15,4.52,3.48,0v-5.56h-.75l-.12-.62h7.25v4.25h6.06L96,622.81H90.13l-.25-.69h6.56l.5,1.19.94.13,3.81,6.56h6.94v-5.94L108,622.5h-4.81l-.19-.81h5.63v-2.5h1v.38l13.81.06v-1.25h-3l-.19-4h2.81l-6.25-55.81h2.63l4.31,42.13,9.81,18.06h15.31l3.06-3.06-1.5-.87.44-1.25-.94-.12-2.12-1.62-1,.06-.31-.69-3.37-2.37h-.75l-.25-.62-.62-.06.19-.94-12.62-7.56.44-.94,18.44,10.13,4,2.5,2.94.06-1.25-2.87.75-.06,1.13,2.25.69.81.81-1.37v-1.69l.5-.5,4.94,1v2.69L161,614.75v.46l1.44,1.1,1.94,1.81v.75h9.31a5.32,5.32,0,0,1,1.31-3.66c1.44-1.46,1.81-1.46,1.81-1.46l-1.56-1,.56-1-7.56-4.69-.44-.06s-.69-.5-1.12-.87-.25-1.19-.25-1.19l-12-6.69.56-1.19,12.56,7.19h.5l5.12,3,.56.06,3.06,1.81h2.56l-1.06-2.31.38-.44.69.13.88,2.19.44.56s.06.69.5.63.94-2,.94-2.94v-.44l4.88.88v2.13l-1.31,3.69,1.31.06v1.06h25l-9-4.87.5-.94L190,600.94l.75-1.12,13.19,7.44.88.13,9,5,2.19-.06.44.44v.88h1.19v-1l1.31-1.31v-2.12l5.62.81v1.56l-.81,2.44h9.44a11.55,11.55,0,0,1,0-4.56,7.26,7.26,0,0,1,1.88-3.81l9.31-.44v-4.44h3.69v.56h-1.37l-.94,1.69v1.81l12.31-.56v-.69l-5.19-6.94.94-.75,5.81,8.13.5.31h7.44s2.19,1.13,2.31,2.75l.13,1.63V601.5s-.12-1.94-1.06-1.87-1.06-.56-1.06-.56l3.38-.06v14.88h11.63l.5.69v.31h10.56v-9.62l-6.25-3.94.5-1.25,5.75,3.88v-3.25h3.69v.56h-1.37l-.75,1.63v1.94l1.81,1.38.31-.44,20.81-1.44v-2.75l-.56-1.75-1.5-.06-.12-.75,3.13-.25v5.44H329a10.46,10.46,0,0,1,1.63,4.81c-.06,2.19-.44,4.06-1.19,4.81l.94.13.25-1.12h2.25v-8.69l-12.75-15.06-1,.44v1.63a.67.67,0,0,0-.5.63.57.57,0,0,0,.5.56l-.48.19s-.85-.54-.87-1.25a.56.56,0,0,1,.65-.62v-1.08s-.81-.23-.79-.79a1.15,1.15,0,0,1,.44-.85v-1.46l1.17-.65L334,602.35a1.49,1.49,0,0,1,1.46-1.69,1.07,1.07,0,0,1,.6,1.35s-.08,1-1.33.75l-.1.42.54.48v7.21l.77.56v1.23h2.85v.73l-.69,1.17h9.08l.83-.1v-.83l.65-1h.46v.6l-.33.33v.88h2.42l.92-3.79h-1.52l-2.42-.52v-.52h.35V608.5s-2.77,0-2.81-2.12,2.73-2.17,2.73-2.17l0,.38s-2.17.27-2.15,1.46h4.06v.42h-4s-.23,1.4,2.13,1.63v-.85H349V608s.92-.1,1.21-.52V608a3.79,3.79,0,0,1-1.1.48v.94h3.75a6.51,6.51,0,0,1-.4-2.83l-4-5.42.88-.69,3.37,5a2.65,2.65,0,0,1-.12-1.83l-1.87-6.56s-.77-.44-.62-.62a5.31,5.31,0,0,1,1.15-.81c.13,0,2.6,7.9,2.6,7.9a3.63,3.63,0,0,1,.48,2.08l.63,1.23.19,0V605.6h1.44l.69.94v2h.27v2.35H358v-.5h.9v1.81L359,612v-3h1.79L362,610v2.06h2.31l1.15-1.33h.71l7.18-5.11a1,1,0,0,1,1.69-.32l19.8,5.5,1,0v1.58l-1.07.5,1.25,0v1.21h1v-4h-2.33v-.62h3v-3l1.12-1.12h1.92v2l1.63-.84,3.76-6.22-10.36-.18v-2.42l12.1-.27,1.25-2.06.75.83-.75,1.2,51.19-1.16s6.18-4.87,9.71-7.75a4.78,4.78,0,0,1-.48-.56,2.51,2.51,0,0,1-.65-1.5c0-1.1,1.1-2,2.15-2.85.24-.2.44-.34.83-.62,0,0,1.28-.92,2.4-1.56a11.56,11.56,0,0,1,4.63-1.19c3-.21,20.08-.28,43.54,0L551.32,592l3.58,7.38v.56h-2.67V603h2v1h-2v10.77l5.14,2.44v3.19h.44v-5.87h-5v-9.81h1.11v-.56l4.45-1.75,4.81-2.35V596h-4v-5.06l2.4-1.24h8.75l2.19,1.24V596h-4.06v2.39l7.31-2.39,11.92-1.62v-2.53l-5.5-2.7H579l1.87-6.32H579V582h2.12l3.56-12h-1.74v-.85h2l1.19-4L584,562.88l-55.6-1.13v-2.37l65.05-1.18c1.17-1,2.33-2,3.52-3l.49-2.93h3.1l2.65-2.13h0a2.42,2.42,0,0,1-1.22-1.54,2.06,2.06,0,0,1,.05-1c.1-.38.35-1,2.08-2.37.44-.35.89-.69,1.44-1.06.9-.62,1.69-1.09,2.25-1.42a13.16,13.16,0,0,1,3-.85l3.79-.17,39,.27,28.79,11.85,3.73,7.06v.88h-3.31v3.06h1.66v.88h-1.66v13.34h1.66v.94h-1.66v6.57h1v3.5h3.67v2.71h7.17v-4.55h-1.83v-5h1.83v-50h29.42l.79-.71-2.5-2-1.5-1.5-5.75-3V525l-13-7.62h3.33l11.75,6.38,4.5,1,4.63,1.63,3.63,1.38,1-1.87,5.88,1s.63,3.38-1.12,5.63l.13.83h5.62v-3.5h24v3.5h9.33V548l-24.17,27.5v3.42l7.07-.25v-.79s.13-4.63,4.25-5h1.13v3.75L762,577.88v6l5.5,1v-3.66s-.67-4.5,4.67-5.12v1.12q8.69-29,8.7-66.33V460.45q0-35.66-7-61.77t-23.49-43.94Q733.88,336.93,707.79,326t-63.51-16.09L251,255.13q-17.41-2.61-23.49-7.83t-6.09-23.49V208.15q0-14.78,7-22.62t25.23-7.83H587.73q10.44,0,10.44,10.44v69.6h7l166.17-60.9V66.34q0-27.83-27-27.84H181.44q-85.27,0-121.8,37.84T23.1,182.92v44.37q0,34.81,7.83,60T56.16,330q17.39,17.41,44.8,27.84t65.69,15.66L546,421.3q16.52,1.75,22.19,8.27t5.65,23.05V470Q573.81,490.9,566.42,499.17Z"/><path class="cls-1" d="M762,592.51v3.14l2.87.69q.74-1.55,1.44-3.14Z"/><path class="cls-1" d="M762,584.39V592l4.52.72c.33-.75.66-1.51,1-2.27v-5.28l0,.25Z"/><polygon class="cls-1" points="757.13 592.87 757.75 592.87 757.75 591.83 757.13 591.73 757.13 592.87"/><path class="cls-1" d="M632.46,544v-1.11l-10.12,0v2.39l6.54-.22v-1Z"/><path class="cls-1" d="M608.15,543.6l-.06,0,.94,2h.44l3.95-2.84a15.33,15.33,0,0,0-5.27.79Z"/><path class="cls-1" d="M613.47,545.52l-.51-1.46-2.1,1.55Z"/><path class="cls-1" d="M606.14,544.85c-1.34,1-1.66,1.23-1.89,1.42a4.65,4.65,0,0,0-.81.82,2,2,0,0,0-.54,1.31,1.8,1.8,0,0,0,1,1.25h0q2.29-1.82,4.56-3.58l-1.11-2A11.3,11.3,0,0,0,606.14,544.85Z"/><path class="cls-1" d="M537.9,588.5l11.17,6,1.29-2.11-12.46-5.06Z"/><path class="cls-1" d="M553.92,599.09l-2.85-6.21-1.3,2,2.46,1.33v2.88Z"/><path class="cls-1" d="M528.12,583.3l-5.56-2.23v1H524v1.21Z"/><path class="cls-1" d="M528.56,583.47l8.65,4.66v-1.18Z"/><path class="cls-1" d="M657.38,545c5.08,2.61,8.44,4.11,10.63,5l.09,0V549c-3.16-1.23-7.82-3.08-14.51-5.86v.72h.73V545Z"/><polygon class="cls-1" points="648.65 543.83 650.67 543.83 648.65 543.02 648.65 543.83"/><polygon class="cls-1" points="652.94 543.83 652.94 542.9 650.49 542.89 652.44 543.83 652.94 543.83"/><polygon class="cls-1" points="647.83 545 647.83 542.88 638.4 542.86 638.4 543.96 638.4 545 639.85 545 639.85 544.17 646.13 544.17 646.13 545 647.83 545"/><path class="cls-1" d="M616.1,542.82h-1.46l-1,.77.84,1.9,1.66-.06Z"/><polygon class="cls-1" points="633.17 542.85 633.17 543.96 637.5 543.96 637.5 542.86 633.17 542.85"/><path class="cls-1" d="M616.81,542.82v2.59l4.69-.16v-2.42Z"/><path class="cls-1" d="M515.67,583.3h1.91v-.75h-1.91Z"/><polygon class="cls-1" points="1355.12 507.43 1354.32 513.13 1375.63 513.13 1375.92 513.12 1374.38 507.43 1355.12 507.43"/><path class="cls-1" d="M1268.62,526,1342,555.33h0l3.88-22.52-1-.7-3-.12v-2.62l.35-.09V516.89h.35l-2.63-9.46h-73.31C1267.22,514.74,1267.9,520.88,1268.62,526Z"/><polygon class="cls-1" points="1345.15 556.45 1346.41 547.55 1344.9 556.36 1345.15 556.45"/><polygon class="cls-1" points="1369.6 514.38 1369.6 522.09 1375.54 522.09 1375.31 514.38 1369.6 514.38"/><polygon class="cls-1" points="1369.6 529.38 1375.76 529.38 1375.56 522.79 1369.6 522.79 1369.6 529.38"/><polygon class="cls-1" points="1358.13 610.25 1351.83 611.5 1339.5 622.17 1339.5 627.13 1358.13 627.13 1358.13 610.25"/><polygon class="cls-1" points="1344.59 560.41 1344.22 560.28 1343.26 565.84 1343.9 565.33 1344.59 560.41"/><rect class="cls-1" x="1366.97" y="514.38" width="1.93" height="7.71"/><path class="cls-1" d="M1276.5,552.33c21.26,2.33,57.56,18.68,62.44,20.91l2.41-14-72-28.77C1272.63,550.59,1276.5,552.33,1276.5,552.33Z"/><polygon class="cls-1" points="1342.37 571.03 1343.09 571.03 1343.28 569.67 1342.49 570.31 1342.37 571.03"/><polygon class="cls-1" points="1347.48 561.42 1347.32 562.58 1348.37 561.74 1347.48 561.42"/><polygon class="cls-1" points="1342.92 522.09 1344.02 522.09 1342.92 518.15 1342.92 522.09"/><polygon class="cls-1" points="1344.22 522.79 1342.92 522.79 1342.92 529.1 1345.76 528.35 1344.22 522.79"/><polygon class="cls-1" points="1344.45 513.13 1342.62 507.43 1342.02 507.43 1343.6 513.13 1344.45 513.13"/><polygon class="cls-1" points="1357.49 533.25 1351.03 536.36 1348.04 557.48 1351.94 558.86 1378.71 537.34 1378.53 535.64 1371.13 533.25 1357.49 533.25"/><polygon class="cls-1" points="1377.87 529.38 1377.18 522.79 1376.26 522.79 1376.46 529.38 1377.87 529.38"/><path class="cls-1" d="M1358,520.13s.09.83.25,2h8v-7.71h-7.15a3.66,3.66,0,0,1-1.09,3.88h1.84v1.88Z"/><polygon class="cls-1" points="1349.3 513.13 1350.28 507.43 1344.72 507.43 1346.45 512.82 1349.3 513.13"/><rect class="cls-1" x="1366.97" y="522.79" width="1.93" height="6.59"/><path class="cls-1" d="M1358.39,522.79c.33,2.11.88,4.8,1.61,5.46a6.77,6.77,0,0,1,1,1.13h5.27v-6.59h-7.89Z"/><polygon class="cls-1" points="1365.63 573.24 1354 573.24 1346.77 575.63 1359.66 579.42 1365.63 573.24"/><path class="cls-1" d="M1379.63,576.88l2.92-3.19-4.79-.44h-3.25v3.91A7.8,7.8,0,0,1,1379.63,576.88Z"/><polygon class="cls-1" points="1412.5 519.85 1411.61 518.78 1411.34 518.98 1409.31 516.25 1408.31 516.25 1408.31 519.52 1412.5 525.02 1412.5 519.85"/><polygon class="cls-1" points="1412.5 518.37 1410.99 516.25 1410.01 516.25 1412.5 519.23 1412.5 518.37"/><polygon class="cls-1" points="1412.5 525.68 1408.31 520.18 1408.31 521.62 1412.5 526.05 1412.5 525.68"/><polygon class="cls-1" points="1394.38 532.38 1412.5 532.38 1412.5 526.64 1408.31 522.2 1408.31 530.5 1389.27 530.5 1394.38 532.38"/><polygon class="cls-1" points="1405.21 507.43 1410.33 514.63 1411.06 514.63 1405.45 507.43 1405.21 507.43"/><polygon class="cls-1" points="1389.4 513.63 1393.13 514.63 1395.61 514.63 1389.91 507.43 1385.93 507.43 1389.4 513.63"/><polygon class="cls-1" points="1386.29 513.13 1387.5 513.13 1388.86 513.49 1385.48 507.43 1383.22 507.43 1386.29 513.13"/><polygon class="cls-1" points="1412.5 515.83 1412.5 515.75 1412.47 515.78 1412.5 515.83"/><polygon class="cls-1" points="1408.66 514.63 1409.84 514.63 1404.72 507.43 1403.25 507.43 1408.1 513.96 1408.66 514.63"/><polygon class="cls-1" points="1399.54 514.63 1395.64 507.43 1390.42 507.43 1396.12 514.63 1399.54 514.63"/><path class="cls-1" d="M1369.8,580.6v-7.35h-1.43l-6.5,6.82,6.78,2A13.68,13.68,0,0,1,1369.8,580.6Z"/><polygon class="cls-1" points="1379.12 541.2 1357.49 560.84 1382.11 569.58 1379.12 541.2"/><polygon class="cls-1" points="1399.99 514.63 1400.61 514.63 1396.49 508.15 1399.99 514.63"/><polygon class="cls-1" points="1382.77 507.43 1381.35 507.43 1381.35 513.13 1385.83 513.13 1382.77 507.43"/><polygon class="cls-1" points="1354.24 563.79 1346.27 571.03 1367.75 571.03 1369.8 569.23 1354.24 563.79"/><polygon class="cls-1" points="1412 516.25 1411.48 516.25 1412.5 517.68 1412.5 516.48 1412.18 516.07 1412 516.25"/><polygon class="cls-1" points="1402.75 507.43 1402.66 507.43 1403.49 508.43 1402.75 507.43"/><polygon class="cls-1" points="1403.74 514.63 1402.78 513.38 1403.5 514.63 1403.74 514.63"/><polygon class="cls-1" points="1400.17 513 1401.71 514.63 1403.04 514.63 1400.91 510.99 1398.14 507.43 1396.76 507.43 1400.17 513"/><polygon class="cls-1" points="1404.58 514.63 1408.1 514.63 1407.79 514.21 1402.14 507.43 1399.29 507.43 1399.91 508.5 1404.58 514.63"/><rect class="cls-1" x="1459.83" y="507.43" width="9.67" height="2.57"/><polygon class="cls-1" points="839.83 492.23 844.22 486.81 839.83 488.89 839.83 492.23"/><polygon class="cls-1" points="846.7 484.85 981.24 420.95 981.24 415.06 899.49 427.18 875.5 449.26 846.7 484.85"/><path class="cls-1" d="M829.79,531l-10.46,2.56,1.52,16,.22.08-.17.47,2.89,30.43H824a48.93,48.93,0,0,0,8.17-.5c5-.67,3.83,1.83,3.83,1.83l.66,3.79h5.71v-3.25h-1.12v-10h1.13v-4.25h1v-2h.31v-12.5h15.55a22.57,22.57,0,0,1-.86-4.75c0-2.52,1.63-7.75,1.63-7.75h4.69v-.87h4.06s2.38-4,2.63,0a6.62,6.62,0,0,1,0,.82v.05h1.5v12.5h15.94v12.19h2.69v.81h-.81v17.75h15.56v15.75h-10.5v3.25h-7.12v6.25h9.5v2.25l11.88-.25.88-7.75,0,0-1.12-3.25,0,0v0l18-5.24.48-3.34h0v0l12.5-1.62v0l41.13.13v0h0l-.12,4.38h0l2.75,5.25h2.38v9.5l1.25,3.13h23.5v-5.62l-14.87-17.87.13-1.5,16.25,19.38v5.63h23.13l-6.31,6.31-13.81,1.32v6.87h21V621h1v6.29h4.75V609.52c-.54-1.94-1.12-4.33-1.75-7.27-4-18.61-11.6-19-12.1-19h-4.78V567.88h5.25v-1.62h14.38v-7.62h-5.75v-2.37h7.25v-5.12h1.13v5.13h3.5v-5.12h1v5.13h4.19v-5.12h.94v5.13H1059v-5.12h1v5.13h12.25v2.38H1061.5v4.75h1.5v2.88h2.38V563.5h8l-.34-.08,12.76-56h-61.88L1037,566l-1,.22-13.12-58.8h-.64l12.1,58.34-.69.14-12.13-58.48H993.42q-12.19,0-12.18-12.18V421.72L845.68,486.11l-5.85,7.23v29.81a3.6,3.6,0,0,1-2.83,3.5V529h2.77v2Z"/><rect class="cls-1" x="1503.31" y="507.43" width="0.5" height="2.57"/><polygon class="cls-1" points="812.99 453.17 813.77 456.61 821.37 453.17 812.99 453.17"/><polygon class="cls-1" points="981.75 593.3 975.05 593.22 975.05 594.88 981.75 594.88 981.7 594.87 981.75 593.3"/><polygon class="cls-1" points="876.59 447.31 898.25 427.36 886.6 429.09 876.59 447.31"/><polygon class="cls-1" points="1412.5 534.25 1392.63 534.25 1382.56 535.64 1388.78 568.59 1392.88 568.59 1392.43 573.24 1403 577 1403 571.25 1409.21 571.25 1412.04 562.5 1410.75 562.5 1410.75 560.23 1405.5 560.23 1405.5 559.98 1405.25 559.98 1405.25 535 1405.75 535 1405.75 539.25 1410.88 539.25 1410.88 536.38 1411.38 536.38 1411.38 550.25 1415.75 550.25 1415.75 537.17 1412.5 537.17 1412.5 534.25"/><polygon class="cls-1" points="1412.5 511.76 1409.51 507.43 1407.94 507.43 1412.5 513.66 1412.5 511.76"/><polygon class="cls-1" points="1412.5 510.65 1410.33 507.43 1410 507.43 1412.5 511.06 1412.5 510.65"/><path class="cls-1" d="M1080.25,566.25v6.38a14.61,14.61,0,0,1,6.25-5V542.75h.63V567.4a17.55,17.55,0,0,1,6.88-1.15h1.38V568l41.47-.09a14.07,14.07,0,0,1,4.53-.82v.81l37.28-.08,7.55-12.7.3.18a42.27,42.27,0,0,0-1.83-9.5c-.65-2-.87-2-1.5-4.17-.79-2.66-.78-3.64-1.5-6.67-.88-3.69-1.24-3.67-1.67-5.83a22,22,0,0,1,0-8.17l2.82-.93-.42-3,.35,0h-.35c0-4.47,10.53-8,24-8v.35l.33-.13,1,2.64,5.42,3.61-1.5-1.83a10,10,0,0,0-1.65-6.23H1086.51l-12.79,56.15-.34-.08v2.75Z"/><polygon class="cls-1" points="813.49 447.82 841.37 435.92 826.24 434.81 813.49 447.82"/><path class="cls-1" d="M806.89,453.17h-1.72v-2H807l0-1.33,1.7-.34-1.29-11.69a3,3,0,0,1-2-3.46l-3.41.23v18.68l4.77,2.93Z"/><path class="cls-1" d="M809.42,437.78l1.25,11.32,1.33-.27.53,2.33h27.24v2h-2.1v3.73a3.59,3.59,0,0,1,2.17,3.29v27.93l5.41-2.57L875,448.82l10.77-19.6-40.66,6,0-.14-32.92,14-.14-.32-.25-.25,13.58-13.85L813,433.83l-1.8.12a3,3,0,0,1-1.78,3.83Z"/><polygon class="cls-1" points="805.39 419.45 802.02 422.66 802.02 431.02 806.7 431.36 805.39 419.45"/><path class="cls-1" d="M811.49,461.57l1-.09,3.3,34.75,16.89-5.65V460.19a3.59,3.59,0,0,1,3-3.52v-3.5h-9.45l-12.32,5.58-.11-.24-1.79.83Z"/><polygon class="cls-1" points="1513.5 510 1513.5 584.33 1527.6 584.33 1527.6 507.43 1513.5 507.43 1513.5 510"/><path class="cls-1" d="M805.57,500.38,802,501.57v17.67l2.33-1.93C804.77,511.52,805.18,505.81,805.57,500.38Z"/><polygon class="cls-1" points="827.11 432.87 827.16 432.87 827.17 432.86 827.11 432.87"/><polygon class="cls-1" points="828.08 432.94 842.57 434 842.47 435.45 844.86 434.43 845 434.75 844.93 434.25 886.34 428.12 888.81 423.62 836.02 431.14 836.02 431.14 828.83 432.24 828.82 432.18 828.78 432.22 828.82 432.75 828.22 432.79 828.08 432.94"/><rect class="cls-1" x="1484.88" y="507.43" width="3.75" height="2.57"/><polygon class="cls-1" points="1410.75 550.25 1410.88 550.25 1410.88 548.49 1405.75 548.49 1405.75 551.62 1410.75 551.62 1410.75 550.25"/><polygon class="cls-1" points="1412.69 571.25 1423.33 571.25 1423.33 562.5 1415.42 562.5 1412.69 571.25"/><rect class="cls-1" x="1405.75" y="543.96" width="5.13" height="4.04"/><rect class="cls-1" x="1405.75" y="552.12" width="5" height="4.08"/><rect class="cls-1" x="1405.75" y="556.7" width="5" height="3.02"/><rect class="cls-1" x="1405.75" y="539.75" width="5.13" height="3.71"/><polygon class="cls-1" points="1399.67 586.83 1403 586.16 1403 580.83 1391.87 576.94 1391 582.75 1393.75 582.75 1394.83 581.67 1397 581.67 1397 586.67 1399.67 586.83"/><polygon class="cls-1" points="1214 509.5 1219.74 507.43 1213.05 507.43 1214 509.5"/><path class="cls-1" d="M1214.31,605.56l-3.19-.1v21.79h10.75V609.33C1221.38,606.9,1219.65,604.41,1214.31,605.56Z"/><polygon class="cls-1" points="1386.19 571.03 1384.13 560.11 1385.24 570.69 1386.19 571.03"/><polygon class="cls-1" points="1405.96 507.43 1411.57 514.63 1411.83 514.63 1406.64 507.43 1405.96 507.43"/><polygon class="cls-1" points="1376.05 515.63 1376.24 522.09 1377.11 522.09 1376.52 516.5 1376.05 515.63"/><rect class="cls-1" x="1489.94" y="507.43" width="3.44" height="2.57"/><rect class="cls-1" x="1494.69" y="507.43" width="2.38" height="2.57"/><rect class="cls-1" x="1480.06" y="507.43" width="3.56" height="2.57"/><polygon class="cls-1" points="1476 510 1479.19 510 1479.19 507.43 1475.56 507.43 1475.56 510 1476 510"/><rect class="cls-1" x="1499.63" y="507.43" width="1.75" height="2.57"/><polygon class="cls-1" points="1423.33 537.17 1421.29 543.71 1421.29 550.25 1423.33 550.25 1423.33 537.17"/><rect class="cls-1" x="1470.38" y="507.43" width="1" height="2.57"/><rect class="cls-1" x="1473.5" y="507.43" width="0.81" height="2.57"/><rect class="cls-1" x="848.63" y="554.88" width="7.94" height="5.88"/><polygon class="cls-1" points="814.94 508.54 813.9 497.59 813.52 497.72 814.1 509.24 814.94 508.54"/><polygon class="cls-1" points="805.04 534.99 807.31 534.43 810.14 531 805.32 531 805.04 534.99"/><polygon class="cls-1" points="804.87 537.38 805.2 536.98 804.97 536.03 804.87 537.38"/><polygon class="cls-1" points="812.71 529 813.09 529 813.06 528.57 812.71 529"/><polygon class="cls-1" points="808.45 534.15 813.28 532.97 813.18 531 811.05 531 808.45 534.15"/><polygon class="cls-1" points="816.17 521.47 815.02 509.38 814.14 510.12 814.79 523.17 816.17 521.47"/><path class="cls-1" d="M835,526.49a3.59,3.59,0,0,1-2.33-3.34V504.84l-14.41,17.44.64,6.72H835Z"/><polygon class="cls-1" points="832.67 503.74 832.67 502.19 818.06 520.24 818.16 521.3 832.67 503.74"/><polygon class="cls-1" points="832.67 494.77 816.88 507.84 817.97 519.25 832.67 501.08 832.67 494.77"/><polygon class="cls-1" points="821.36 531 819.08 531 819.13 531.54 821.36 531"/><polygon class="cls-1" points="816.8 507 832.67 493.87 832.67 491.31 815.85 496.94 816.8 507"/><polygon class="cls-1" points="828.75 599.63 828.75 590.42 825.5 590.42 825.83 599.63 828.75 599.63"/><rect class="cls-1" x="845" y="554.88" width="2.75" height="5.88"/><polygon class="cls-1" points="813.48 497 813.83 496.88 813.08 488.89 813.48 497"/><rect class="cls-1" x="848.63" y="561.69" width="7.94" height="4.44"/><rect class="cls-1" x="845" y="561.69" width="2.75" height="4.44"/><polygon class="cls-1" points="819.3 554.49 816.72 561.63 816.76 562.37 817.38 562.5 817.38 580.83 821.79 580.61 819.3 554.49"/><path class="cls-1" d="M806,599.63h3.33a118.47,118.47,0,0,1,1.66-13h-5Z"/><path class="cls-1" d="M813.67,561.69l.84.18.2-.54L813.39,535l-7.07,1.73-1.53,1.85L803,563.91s.83-2.16.83,2.72c0,3-.65,12.45-1.13,19.13h8.46c.3-1.54.51-2.42.51-2.42v-20.5c-1.83-.33-3-20.17-3-20.17h3.5l-.67,3.17C811,558.5,813.67,561.69,813.67,561.69Z"/><path class="cls-1" d="M816.83,599.63h1.42v-9.25h.5a2.55,2.55,0,0,0-1.91.08Z"/><polygon class="cls-1" points="1113.13 390.63 1277.04 367.26 1277.04 363.73 1113.56 388.72 1113.13 390.63"/><polygon class="cls-1" points="1023.99 403.34 1112.38 390.74 1112.82 388.83 1023.66 402.46 1023.99 403.34"/><polygon class="cls-1" points="1112.21 394.64 1277.04 370.21 1277.04 368.27 1112.89 391.68 1112.21 394.64"/><polygon class="cls-1" points="1412.5 514.63 1412.5 514.33 1407.44 507.43 1407.13 507.43 1412.33 514.63 1412.5 514.63"/><polygon class="cls-1" points="1412.5 507.43 1410.81 507.43 1412.5 509.93 1412.5 507.43"/><polygon class="cls-1" points="981.24 409.43 981.24 408.95 934.01 416.17 981.24 409.43"/><polygon class="cls-1" points="857.38 566.13 858.13 566.13 859.36 561.69 857.38 561.69 857.38 566.13"/><path class="cls-1" d="M805.29,418.57l-1.12-10.13,2-.22.48,4.35,1.07-.71-1.21-25,2-.1,1.24,25.56-1,0,.55.83-2.4,1.59.22,2,1.14-1.09.48.51-1.53,1.46,1.52,13.8,4.27.31,15.68-1.07,0,.5,7.16-1.09h0l145.34-22.22V305.59h6.09l36,95.91L1277,362.72V288.19H981.24V209a16.74,16.74,0,0,1,2.17-8.27q2.16-3.91,9.13-3.92h359.31q8.69,0,8.7,9.57V290.8h7L1533.69,229V64.6q0-26.1-26.1-26.1H827.25Q802,38.5,802,64.6V421.69Z"/><path class="cls-1" d="M805.63,499.62c1.6-22.19,2.87-39.62,2.87-39.62h-1.83l.09-2.66-.52.85L802,455.61v45.22Z"/><polygon class="cls-1" points="887.21 427.99 981.24 414.05 981.24 410.44 889.67 423.5 887.21 427.99"/><polygon class="cls-1" points="811.51 497.65 810.02 467.95 809.67 469.5 807.59 498.97 811.51 497.65"/><path class="cls-1" d="M820.13,591.46v8.17H822C821.87,595.08,821.06,592.69,820.13,591.46Z"/><polygon class="cls-1" points="818.86 549.83 817.36 534.03 815.36 534.52 816.47 556.46 818.86 549.83"/><path class="cls-1" d="M805,599.63v-13h-2.36c-.27,3.6-.47,6.22-.47,6.22a2.69,2.69,0,0,1-.15,1.48v3.92l1.31,1.37Z"/><polygon class="cls-1" points="817.17 532.02 817.07 531 815.19 531 815.26 532.49 817.17 532.02"/><polygon class="cls-1" points="816.88 529 816.45 524.46 814.95 526.28 815.09 529 816.88 529"/><polygon class="cls-1" points="816.36 523.48 816.26 522.47 814.85 524.22 814.9 525.25 816.36 523.48"/><path class="cls-1" d="M802.72,540c.51-7.12,1-14.47,1.56-21.7L802,520.15v20.68Z"/><polygon class="cls-1" points="806.41 515.61 812.17 510.83 811.55 498.38 807.53 499.72 806.41 515.61"/><path class="cls-1" d="M802.64,541.19l-.62.75v7.9Z"/><polygon class="cls-1" points="805.47 529 811.8 529 813.01 527.53 812.93 525.89 812.73 525.72 812.91 525.5 812.22 511.71 806.34 516.57 805.47 529"/><path class="cls-1" d="M1186.83,563.17a32.2,32.2,0,0,0-.27-7.25l-7.09,11.94h6.32A22,22,0,0,0,1186.83,563.17Z"/><polygon class="cls-1" points="1207.05 512.04 1206.17 509.81 1194.82 513.47 1195.82 515.76 1207.05 512.04"/><path class="cls-1" d="M1160.94,575.1c3.73-.45,8.47-.9,14.09-1.14l3.21-5.41-36.86.08v8.62l-1.72.5v7a32.87,32.87,0,0,1,9.65-6.76A36.49,36.49,0,0,1,1160.94,575.1Z"/><path class="cls-1" d="M1204,509.76a61.35,61.35,0,0,0-10.33,1.18l.83,1.89Z"/><path class="cls-1" d="M1183.16,516.5l10.06-3.25-.35-2.13C1187.42,512.36,1183.67,514.31,1183.16,516.5Z"/><polygon class="cls-1" points="1379.18 513.13 1380.65 513.13 1380.65 507.43 1378.97 507.43 1378.97 511.17 1379.18 513.13"/><polygon class="cls-1" points="1195.15 515.98 1194.15 513.69 1194.02 513.73 1194.43 516.22 1195.15 515.98"/><polygon class="cls-1" points="981.82 590.55 975.05 590.53 975.05 593.12 981.75 593.2 981.82 590.55"/><path class="cls-1" d="M1135.37,568.64l-40,.08v-.35l-2,.13v2a9.83,9.83,0,0,0-6.25.62v8.38H1094V586h-.62v11h6.25v7.5h12.13v-1.12h16.13v1.13h2v-10h1.75V578S1130.34,571.64,1135.37,568.64Z"/><polygon class="cls-1" points="985.13 623.13 985.13 625.88 975.63 625.88 975.63 627.25 1010.13 627.25 1010.13 620.96 987.5 623.13 985.13 623.13"/><path class="cls-1" d="M1086.5,579.5v-8c-2,1.22-3.72,3.58-4.25,8Z"/><polygon class="cls-1" points="1025.54 407.49 1111.47 394.75 1112.15 391.78 1024.35 404.3 1025.54 407.49"/><polygon class="cls-1" points="1029.09 416.95 1106.41 416.95 1111.23 395.8 1025.9 408.44 1029.09 416.95"/><polygon class="cls-1" points="1107.13 416.95 1277.04 416.95 1277.04 371.22 1111.97 395.69 1107.13 416.95"/><polygon class="cls-1" points="974.95 590.53 965.17 590.5 965.17 592.99 974.95 593.12 974.95 590.53"/><polygon class="cls-1" points="1375.85 510.18 1375.56 507.43 1375.11 507.43 1375.85 510.18"/><polygon class="cls-1" points="1143.67 604.5 1154.25 592.88 1139.65 584.75 1139.65 604.5 1143.67 604.5"/><path class="cls-1" d="M1179.05,568.55l-3.19,5.37c2.49-.09,5.12-.15,7.94-.14h-1a25.68,25.68,0,0,0,2.69-5.24Z"/><path class="cls-1" d="M1187.33,573.78h5.17l-.57-5.26h-2.63A38.34,38.34,0,0,1,1187.33,573.78Z"/><polygon class="cls-1" points="1193.34 513.95 1183.14 517.24 1183.49 519.84 1193.75 516.44 1193.34 513.95"/><path class="cls-1" d="M862,560.75V557.5h-1.62s-.37-1.13-.79-2.62h-2.21v5.88H862Z"/><path class="cls-1" d="M1189.83,566.5c-.11.46-.23.89-.35,1.33h2.37l-1-9.33A38.27,38.27,0,0,1,1189.83,566.5Z"/><polygon class="cls-1" points="888.81 566.63 888.81 568.88 888.63 568.88 888.63 584.38 889.88 584.38 889.88 566.63 888.81 566.63"/><rect class="cls-1" x="886.13" y="554.88" width="1.94" height="5.88"/><polygon class="cls-1" points="950.45 592.91 942.1 592.8 941.92 594.88 950.45 594.88 950.45 592.91"/><rect class="cls-1" x="886.13" y="561.69" width="1.94" height="4.44"/><polygon class="cls-1" points="950.45 590.45 942.29 590.43 942.11 592.7 950.45 592.81 950.45 590.45"/><rect class="cls-1" x="876" y="554.88" width="9.13" height="5.88"/><polygon class="cls-1" points="875.25 566.13 875.25 561.69 871.81 561.69 873.26 566.13 875.25 566.13"/><polygon class="cls-1" points="875.25 554.88 872.88 554.88 872.88 557.5 868.38 557.5 868.38 560.75 871.5 560.75 875.25 560.75 875.25 554.88"/><rect class="cls-1" x="876" y="561.69" width="9.13" height="4.44"/><polygon class="cls-1" points="937 592.64 942.01 592.7 942.2 590.43 940.76 590.42 928.29 592.04 927.83 595.31 936.99 592.64 937 592.69 937 592.64"/><polygon class="cls-1" points="965.08 590.5 960.05 590.48 960.05 592.93 965.08 592.99 965.08 590.5"/><polygon class="cls-1" points="959.95 590.48 953.55 590.46 953.55 592.85 959.95 592.93 959.95 590.48"/><polygon class="cls-1" points="960.05 594.88 965.08 594.88 965.08 593.09 960.05 593.03 960.05 594.88"/><polygon class="cls-1" points="953.55 594.88 959.95 594.88 959.95 593.03 953.55 592.95 953.55 594.88"/><polygon class="cls-1" points="965.17 594.88 974.95 594.88 974.95 593.22 965.17 593.09 965.17 594.88"/><polygon class="cls-1" points="953.45 590.46 950.55 590.46 950.55 592.81 953.45 592.85 953.45 590.46"/><polygon class="cls-1" points="909.82 600.66 910.92 603.86 927.56 596.81 927.51 596.8 927.71 595.45 909.82 600.66"/><polygon class="cls-1" points="937.01 592.74 927.81 595.42 927.62 596.78 932.13 594.88 941.88 594.88 941.83 594.87 942 592.8 937.01 592.74"/><polygon class="cls-1" points="950.55 594.88 953.45 594.88 953.45 592.94 950.55 592.91 950.55 594.88"/><polygon class="cls-1" points="898.13 627.25 938.63 627.25 938.63 626.5 928.88 626 924.38 624 898.13 623.88 898.13 627.25"/><path class="cls-1" d="M1828.75,589.13h-16.94l.16.54,1.72-.13.23.52-1.73.39.61,2.13h.21v0l15.75-1.31Z"/><polygon class="cls-1" points="1881.75 594.56 1882.5 594.56 1882.5 591.88 1879 591.88 1879 595.42 1881.75 595.42 1881.75 594.56"/><path class="cls-1" d="M1813.38,594.64l-.1-.55h-.06Z"/><path class="cls-1" d="M1828.75,587.75h6.42v-1.53q-11.42.08-24.2,0l.65,2.28,17.13-.13Z"/><path class="cls-1" d="M1877.88,591.87q-6,.34-12.21.54-9.67.32-18.83.29l-.79,2.75h17.45v-2.32h11.25v2.28h3.13Z"/><path class="cls-1" d="M1882.5,585.07c-12.49.53-28,1-46.21,1.15v1.53h3.83v.58l37.75.13v-.84H1879v.83l3.5-.21Z"/><polygon class="cls-1" points="1879 596.88 1881.75 596.56 1881.75 596.04 1879 596.04 1879 596.88"/><polygon class="cls-1" points="1882.5 588.88 1879 589.12 1879 591.22 1882.5 591.22 1882.5 588.88"/><path class="cls-1" d="M1775.52,552.42l1-1.42-1-.77Z"/><path class="cls-1" d="M1780.08,550.23h-3.44l4.13,2.84h.31s.6.19,1.45.54h0l1.34-2.49a6.41,6.41,0,0,0-1.35-.61A6.57,6.57,0,0,0,1780.08,550.23Z"/><path class="cls-1" d="M1752.13,550.21v1.11h6.56v-1.11Z"/><path class="cls-1" d="M1762.67,552.5l5,.16v-2.43h-8.42v1.08h3.29v1.19Z"/><path class="cls-1" d="M1768.21,550.21v2.47l6.79.22v-2.54Z"/><rect class="cls-1" x="1874.75" y="596.04" width="3.13" height="0.88"/><polygon class="cls-1" points="1779.08 553.02 1776.98 551.37 1775.94 552.92 1779.08 553.02"/><path class="cls-1" d="M1786.75,556c.31.27.8.69,1.39,1.17a10.36,10.36,0,0,0,.5-.92,3.89,3.89,0,0,0,.27-.6c.22-1.22-1.76-2.51-4.46-4.2l-1.25,2.41h0A14.46,14.46,0,0,1,1786.75,556Z"/><path class="cls-1" d="M1806.81,570.4h-2.25a2,2,0,0,0,1.48.79C1806.94,571.17,1806.81,570.4,1806.81,570.4Z"/><polygon class="cls-1" points="1883.33 594.56 1885.08 594.56 1885.08 593.88 1885.79 593.88 1885.79 591.7 1883.33 591.86 1883.33 594.56"/><path class="cls-1" d="M1974.38,588.56l1.38,1.56,1-1.62H1978v-3.21l-9.12.69v1.42c1.94-.12,3.92-.16,3.92-.16s5.06-.31,5.13.44S1974.38,588.56,1974.38,588.56Z"/><polygon class="cls-1" points="1883.33 591 1885.79 590.86 1885.79 589.13 1883.54 589.13 1883.54 588.81 1883.33 588.83 1883.33 591"/><path class="cls-1" d="M1899.13,593.69l-.37.88h4.89l-.18-1.1H1902v-.92h1.27l0-.2a1.82,1.82,0,0,0-.37-.28c-.66-.37-1.16-.08-1.59-.28a1.57,1.57,0,0,1-.72-1.07h0l-13.43.9v2.27h.83v.69h8.19s.13-1.5,2.63-1.62l2.5-.12v.88Z"/><path class="cls-1" d="M1903.95,587.6l-14.12.84v.69h-2.67v1.65l13.37-.76h0a1.35,1.35,0,0,1,.18-.59,4.34,4.34,0,0,1,2.47-1.25,1,1,0,0,0,.65-.34A.71.71,0,0,0,1903.95,587.6Z"/><polygon class="cls-1" points="1977.96 583.2 1968.83 584.02 1968.83 585.47 1977.96 584.83 1977.96 583.2"/><polygon class="cls-1" points="1967.96 584.09 1951.84 585.36 1952.88 586 1957.5 586 1957.66 586.24 1967.96 585.53 1967.96 584.09"/><path class="cls-1" d="M1978,578.82l-18.36,1.36-28.76,2.12v4l8.35-.62v-.77h-1.62V583.5h14v1.33l16.4-1.26V583h.88v.55h.13l9-.84Z"/><path class="cls-1" d="M1920,593.28c-.31.12-1.27.43-3.84-.31a19.08,19.08,0,0,1-2.87-1.09l-2.09,2.53,11.66-1-.59-1-1.16.16A3.72,3.72,0,0,1,1920,593.28Z"/><path class="cls-1" d="M1924.13,589.2l1.47-.08a2.05,2.05,0,0,0,2.21,1.22,2,2,0,0,0,1.23-1h1v-.59l-5.87.29Z"/><path class="cls-1" d="M1923.25,587.42l-10.91.5h0a3.12,3.12,0,0,1,1,1.43,1.28,1.28,0,0,0,.47-.06,1.3,1.3,0,0,0,.56-.37l8.91-.46Z"/><path class="cls-1" d="M1958.94,588c.63.06.81-.81.81-.81l3.44.63,1.19,1.32a9.23,9.23,0,0,0,.81-1.13,6.56,6.56,0,0,1,2.77-.53v-1.42l-10,.76C1958.13,587.21,1958.48,588,1958.94,588Z"/><polygon class="cls-1" points="1930 586.98 1924.17 587.38 1924.13 587.38 1924.13 588.4 1930 588.1 1930 586.98"/><path class="cls-1" d="M1845.5,597.38h18v-1.17h-17.67Z"/><path class="cls-1" d="M1923.25,589.09l-4.63.23.19,0a1.57,1.57,0,0,0,2.66,0l1.78-.09Z"/><path class="cls-1" d="M1930,582.37c-3.28.23-24.23,1.7-46.67,2.67v3.22h.21v-.61h2.25v-.5h1.38v.5h2.67v.27l14.1-.77v-1.66h7.34l.09,1.94,11.88-.53v-.66h.88v.63l5.88-.44Z"/><path class="cls-1" d="M1877.88,589.13h-37.75v2a28.94,28.94,0,0,1,6.13,0l1,.13-.18.62q9.2.1,19-.16,6-.17,11.83-.49Z"/><rect class="cls-1" x="1504.94" y="498.33" width="0.81" height="5.48"/><polygon class="cls-1" points="1509.18 497.58 1508.58 498.33 1508.31 498.33 1508.31 503.81 1509.31 503.81 1509.31 497.58 1509.18 497.58"/><rect class="cls-1" x="1506.56" y="498.33" width="0.69" height="5.48"/><polygon class="cls-1" points="1504.13 503.81 1504.13 498.33 1503.31 498.33 1503.31 510 1503.81 510 1503.81 503.81 1504.13 503.81"/><polygon class="cls-1" points="1581.08 558.21 1585.21 558.21 1581.08 530.13 1581.08 558.21"/><path class="cls-1" d="M1587,558.21l-2.51-12.81,2,12.81Z"/><rect class="cls-1" x="1499.63" y="498.33" width="1.75" height="11.67"/><rect class="cls-1" x="1510.44" y="497.08" width="0.69" height="6.73"/><rect class="cls-1" x="1470.38" y="499.33" width="1" height="10.67"/><polygon class="cls-1" points="1479.19 499.33 1475.56 499.33 1475.56 510 1476 510 1479.19 510 1479.19 499.33"/><rect class="cls-1" x="1494.69" y="499.33" width="2.38" height="10.67"/><path class="cls-1" d="M1744.07,552.5h1.31v-.75h-1.31Z"/><rect class="cls-1" x="1459.83" y="499.33" width="9.67" height="10.67"/><path class="cls-1" d="M1581.08,572.66l6.19-1c-1.06-.41-2-12.05-2-12.05h-4.21Z"/><polygon class="cls-1" points="1492.83 499.33 1489.94 499.33 1489.94 510 1493.38 510 1493.38 499.33 1492.83 499.33"/><rect class="cls-1" x="1484.88" y="499.33" width="3.75" height="10.67"/><rect class="cls-1" x="1480.06" y="499.33" width="3.56" height="10.67"/><rect class="cls-1" x="1473.5" y="499.33" width="0.81" height="10.67"/><path class="cls-1" d="M1705,568.29h1.69v-2.87l2.46-1.33-1.3-2Z"/><path class="cls-1" d="M1736.33,551.29v-1l-5.56,2.23h4.14v-1.21Z"/><path class="cls-1" d="M1706.67,594.64V573.25h-2v-1h2v-3.12h-2.58Z"/><path class="cls-1" d="M1721,557.7v-1.16l-12.46,5.06,1.29,2.11Z"/><path class="cls-1" d="M1743.23,550.52l-1.68.75h1.68Z"/><path class="cls-1" d="M1746.31,552.5v-1.19h5.3v-1.08h-7.54v1h1.77v1.23Z"/><path class="cls-1" d="M1741.32,552.5h1.91v-.75h-1.91Z"/><path class="cls-1" d="M1736.9,551.27h3l2.12-1h-5.11Z"/><polygon class="cls-1" points="1600.14 553.75 1599.17 553.75 1600.1 558.58 1600.14 558.58 1600.14 553.75"/><polygon class="cls-1" points="1598.11 558.58 1598.5 558.58 1597.04 551.04 1598.11 558.58"/><polygon class="cls-1" points="1598.32 560.04 1599.69 569.7 1600.14 569.63 1600.14 567 1598.79 560.04 1598.32 560.04"/><path class="cls-1" d="M1592.83,560c4.21,6.21,3.58,10.18,3.58,10.18l1.79-.29h0l-1.34-9.89Z"/><polygon class="cls-1" points="1630.16 516.36 1630.16 517.3 1630.67 517.3 1632.62 516.36 1630.16 516.36"/><polygon class="cls-1" points="1632.45 517.3 1632.94 517.3 1633.07 517.06 1632.45 517.3"/><polygon class="cls-1" points="1592.83 558.58 1596.68 558.58 1592.83 530.13 1592.83 558.58"/><path class="cls-1" d="M1628.78,518.48V517.3h.73v-.73c-6.72,2.8-11.41,4.66-14.59,5.89v1.07l.09,0c2.19-.9,5.57-2.4,10.68-5Z"/><polygon class="cls-1" points="1978.79 584.63 2012.33 581.15 2012.33 580.02 1978.79 583.13 1978.79 584.63"/><polygon class="cls-1" points="2103.58 574.33 2103.94 573.78 2103.94 566 2103.58 566.08 2103.58 574.33"/><polygon class="cls-1" points="1403 571.25 1409.21 571.25 1412.04 562.5 1410.75 562.5 1410.75 560.23 1405.5 560.23 1405.5 559.98 1405.25 559.98 1405.25 558.23 1396.6 574.73 1403 577 1403 571.25"/><polygon class="cls-1" points="2104.73 565.82 2104.73 572.56 2109.81 564.68 2104.73 565.82"/><path class="cls-1" d="M2104.73,575.7l1.24-.2.9-.19,0-3.09-1.25.13-.86,1.31Z"/><path class="cls-1" d="M2103.58,562.32v3l.36-.08v-.67h.79v.5q2.66-.58,5.63-1.26l1.8-2.79-6.45,1Z"/><polygon class="cls-1" points="1399.67 586.83 1403 586.16 1403 580.83 1394.88 578 1392.39 582.75 1393.75 582.75 1394.83 581.67 1397 581.67 1397 586.67 1399.67 586.83"/><path class="cls-1" d="M1721.69,556.15v1.18l8.65-4.66Z"/><path class="cls-1" d="M2103.58,575.89l.36-.06v-1l-.36.55Z"/><polygon class="cls-1" points="2118.13 562.75 2110.76 564.46 2106.04 571.65 2118.13 568.33 2118.13 562.75"/><path class="cls-1" d="M2129.68,538.63l-5,19.72,5-.68Z"/><path class="cls-1" d="M2124.25,559.93l2.92-1-2.76.38Z"/><path class="cls-1" d="M2084.38,579l1.55-.25-.3-2.56-1.26.22Z"/><path class="cls-1" d="M2118.13,569.21V569l-7.5,2.14.65,3.16,6.85-1.48v-2.65h-.85v-.92Z"/><path class="cls-1" d="M2111.32,563.62q3.22-.75,6.77-1.62h0v-.7h.88v.44l.21-.06,4.27-1.47.2-.79c-3.11.43-6.66.93-10.58,1.5Z"/><path class="cls-1" d="M2122,568.67l1.4,2.51,2-.6.47.6h0l.36-.08c-.14-.32-1.73-4,.14-6.54a6,6,0,0,1,3.31-1.89V558.6l-5.64,2.11Z"/><polygon class="cls-1" points="2119 562.55 2119 569.13 2121.34 568.47 2123.27 561 2119.33 562.47 2119 562.55"/><path class="cls-1" d="M2135.67,570a3.91,3.91,0,0,0-.3-3,3.57,3.57,0,0,0-2.74-1.37,8.73,8.73,0,0,0,.85,2.91A4.24,4.24,0,0,0,2135.67,570Z"/><polygon class="cls-1" points="1411.38 550.25 1415.75 550.25 1415.75 538.21 1411.38 546.55 1411.38 550.25"/><polygon class="cls-1" points="1423.33 537.17 1421.29 543.71 1421.29 550.25 1423.33 550.25 1423.33 537.17"/><polygon class="cls-1" points="1410.75 556.7 1406.05 556.7 1405.75 557.28 1405.75 559.73 1410.75 559.73 1410.75 556.7"/><polygon class="cls-1" points="1412.69 571.25 1423.33 571.25 1423.33 562.5 1415.42 562.5 1412.69 571.25"/><path class="cls-1" d="M1697.43,536.49l-1.92,0,1.19,1Z"/><polygon class="cls-1" points="1605.67 565 1601.92 561.83 1600.67 561.83 1601.92 569.08 1607.61 568.45 1609.31 565 1605.67 565"/><polygon class="cls-1" points="2095.08 567.77 2094.3 567.9 2093.72 569.5 2095.08 569.23 2095.08 567.77"/><path class="cls-1" d="M1953.09,59.38q-7-12.17-13.48-16.53t-21.32-4.35H1699.92q-14.8,0-20.88,4.35t-12.18,16.53L1453.49,466.25h5v11.33h-2.87v.92H1462l-1.25-5.75V464.5s5.5-1.75,6.17,4.25l1.5,1.08h3.92V471h-3.58s1.92,1.58,1.5,2.92l6.25.5v-2.08h5.33v1.25h11.58l-.58,4.92,3.75,10.46,5.75,1.46v-2.25h7.25v2.67l1.33.25v1.5l2,.83v3.67h-.23v6.73h.81v80.52h64.13v-6.08H1577v-.75h1.63v.13h.83V575.5h-.83v-2.71h1.13V525.13h-.37v-1.37h.38V511.29h1.33v12.46h1.21v1.38H1582l6.27,33.08a10.8,10.8,0,0,1,3.13,1V524.92h-.29v-1.37h.29V510.63h1.46v12.92H1594v1.38h-.37l5.36,27.89h1.15V539.4h-1.66v-.88h1.66v-3.08h-3.33v-.88l3.75-7.1,28.94-11.92,4.33,0L1792.14,196q3.47-6.08,11.31-6.09h10.44q8.69,0,12.18,6.09l100,200.1q13.91,27.85,23.49,46.11t16.53,31.32q7,13.05,12.62,22.19t10.88,18.7l-2.61,6.09q-11.32-.86-23.49-1.74t-27.84-1.3Q1920,517,1899.58,517H1676.65c.34.21.7.45,1.1.72.55.38,1,.71,1.44,1.07,1.74,1.39,2,2,2.09,2.39a2.07,2.07,0,0,1,.05,1,2.43,2.43,0,0,1-1.23,1.55h0l2.67,2.14h3.11l.49,2.94c1.2,1,2.37,2,3.54,3l65.39,1.18v2.39l-55.89,1.13-2.1,2.16,1.2,4.06h2v.86h-1.75l3.58,12.1h2.13v.86h-1.88l1.88,6.35h-3.18l-5.53,2.71v2.74H1704l0,.22,3.56-7.33,28.75-11.77c23.46-.28,40.58-.21,43.54,0a11.56,11.56,0,0,1,4.63,1.19c1.12.64,2.4,1.56,2.4,1.56.4.29.59.43.83.63,1.05.86,2.14,1.76,2.15,2.85a2.51,2.51,0,0,1-.65,1.5,4.78,4.78,0,0,1-.48.56c3.53,2.88,9.71,7.75,9.71,7.75l64.54,1.46v2.42l-54.17,1a1.24,1.24,0,0,1,.16.75c-.05.4-.33.66-.85,1.13a7.75,7.75,0,0,1-1,.75l1.13,3.95,1.54-.28.19.58-1.53.37,2.26,7.88q12.9.12,24.42,0v-.32h1.13v.31c18.16-.15,33.67-.63,46.21-1.17v-.44h.83v.4c21.56-.94,41.84-2.35,46.67-2.7v-.41h.83v.35l.25,0c6.16-.46,22.54-1.71,27.42-2.08l19.46-1.5v-.59h.83v.52l.25,0c15-1.22,25.56-2.5,46.5-5l1.08-.13v-.45h.92v.34c21.59-2.62,32.92-4,45.42-6v-.81h1v.65c3.59-.59,6.65-1.11,9.79-1.65v-.79h.67v.68c4.93-.84,10.2-1.74,18.21-3v-.65h1v.5q4.89-.75,9.24-1.39l16.86-26.11v1.73l-15.91,24.24c3.75-.55,7.16-1,10.16-1.44l5.75-22.26v-29.3c.16,0,1.42,0,1.47,0s0,.22,0,.62v-.05h3.4v2.38h1v3.58h-3v-1h.5v-1.62h-.5v-.92H2134v-1.67h-2.84c0,8.27,0,54.08.14,54.05a17.25,17.25,0,0,1,3.09-.53,11.07,11.07,0,0,1,4,.5c2.62,1,5,4.24,4.75,7.25-.33,3.77-5.21,8.11-7.31,8.88-.21.08-1.11.38-1.19.94s.56.68.75,1.38a2.31,2.31,0,0,1-1.19,2.44,2.38,2.38,0,0,1-2.48-.15l-4.71,11.4q-3.25,18-7.75,37.38c-3.27,13.94-6.79,27.18-10.46,39.69l0,.49H2268v-7Z"/><rect class="cls-1" x="1452.33" y="477.58" width="0.48" height="0.92"/><polygon class="cls-1" points="1410.75 550.25 1410.88 550.25 1410.88 548.49 1410.36 548.49 1408.72 551.62 1410.75 551.62 1410.75 550.25"/><polygon class="cls-1" points="1410.75 552.12 1408.45 552.12 1406.31 556.2 1410.75 556.2 1410.75 552.12"/><polygon class="cls-1" points="1410.62 547.99 1410.88 547.99 1410.88 547.51 1410.62 547.99"/><path class="cls-1" d="M1679.92,520.58a4.68,4.68,0,0,0-.82-.82c-.23-.2-.56-.47-1.9-1.43a11.35,11.35,0,0,0-1.23-.83l-1.12,2.06q2.28,1.77,4.58,3.59h0a1.81,1.81,0,0,0,1-1.26A2,2,0,0,0,1679.92,520.58Z"/><path class="cls-1" d="M1601.63,528.1l1.16,2,1.71-.87a3.28,3.28,0,0,1,1.41-2,2.35,2.35,0,0,1,.47-.2,75.91,75.91,0,0,0,7.76-3.22v-1.11c-1.45.56-4.21,1.63-7.81,3.2C1604.43,526.8,1602.82,527.54,1601.63,528.1Z"/><path class="cls-1" d="M1600.93,528.42l-2.84,6.14h2v-3.08l2.07-1.06-1.07-2.1Z"/><path class="cls-1" d="M1673.82,519.11l0,0h.45l.95-2-.06,0L1675,517h-1.13Z"/><path class="cls-1" d="M2084.38,569l.42-.07-.42-3.6Z"/><polygon class="cls-1" points="2055.79 580.21 2054.08 580.21 2054.08 581.17 2055.79 580.87 2055.79 580.21"/><path class="cls-1" d="M2073,567.26c-15.7,2.6-31.21,4.77-45.42,6.52v3.92c6.6-.81,13.15-1.62,20.63-2.69v-.56H2052l3.78-.57v-.55h.75v.44l.13,0c4.05-.63,8.4-1.38,16.29-2.74Z"/><polygon class="cls-1" points="2072.96 571.55 2056.75 574.46 2056.54 574.48 2056.54 575.5 2072.96 573.06 2072.96 571.55"/><path class="cls-1" d="M2054.08,583.66l1.71-.25v-2l-1.71.28Z"/><path class="cls-1" d="M2056.54,583.29q8.23-1.23,16.42-2.49v-2.17l-16.42,2.65Z"/><path class="cls-1" d="M2027.54,585.46a5.45,5.45,0,0,1,3.46.91l17.49-1.9,1.55-.22v-2l-22.5,3Z"/><path class="cls-1" d="M2027.54,584.67l22.5-3v-1.46h-1.87v-3c-2.85.52-5.77,1-8.79,1.45q-6.1.91-11.83,1.5Z"/><polygon class="cls-1" points="2073.92 577.83 2074.86 577.67 2074.13 571.34 2073.92 571.38 2073.92 577.83"/><path class="cls-1" d="M2027.54,579.44c3.72-.35,7.59-.81,11.61-1.4q4.6-.68,8.89-1.49h.13v-1l-20.62,2.88Z"/><path class="cls-1" d="M2026.63,580.21l-13.42,1.43v2.93a3.62,3.62,0,0,1,2.42.08,3.58,3.58,0,0,1,1.56,1.23l1.42.15a3.09,3.09,0,0,1,.44-.48s.72-.64.7-.8h0a12.64,12.64,0,0,1,2.21.26,4.93,4.93,0,0,1,.81.29l3.85-.51Z"/><path class="cls-1" d="M1930.83,589.34h2.85l1,1.16,1.24.34h0a5,5,0,0,1-.4-1.71,3.76,3.76,0,0,1,.26-.67l-4.93.25Z"/><path class="cls-1" d="M2095.08,569.86l-1.61.31-1.63,4.49,3.24-.53Z"/><path class="cls-1" d="M1978.79,587h1.71a1.44,1.44,0,0,0,1.19.38,1.32,1.32,0,0,0,.69-.37l2.94-.69,2.52,1.38a5.19,5.19,0,0,1,1.85-1.07c.35-.11,1.76-.56,2.19,0a.67.67,0,0,1,.13.38h.88v-1.18a5.84,5.84,0,0,1,4.75,0l1.5,1.18h.63l.75-1.5,4-.31.38,1.18h.75l1-1.74,4.16.28.84,1.46.71-.9V582l-33.54,3.38Z"/><polygon class="cls-1" points="2072.96 573.92 2056.54 576.12 2056.54 580.21 2056.54 580.73 2072.96 577.83 2072.96 573.92"/><path class="cls-1" d="M2026.63,573.9c-19.5,2.4-36.45,4-47.83,4.86v3.83l33.54-3.12v-.72h.88v.64l.17,0c3.31-.37,7.86-.89,13.25-1.55Z"/><path class="cls-1" d="M2026.63,578.48l-13.12,1.44-.29,0v1.12l13.42-1.39Z"/><path class="cls-1" d="M2024.38,586.37a5.1,5.1,0,0,1,2.25-.78v-.21l-3,.4h0A6.64,6.64,0,0,1,2024.38,586.37Z"/><path class="cls-1" d="M2073.92,570.84l.15,0-.15-1.32Z"/><path class="cls-1" d="M2096,577.13l2.3-.37,2.83-8-5.12,1Z"/><path class="cls-1" d="M2102.58,575.88v-8l-3.35,8.76,3.22-.52Z"/><polygon class="cls-1" points="2102.14 566.4 2095.96 567.62 2095.96 569.06 2101.71 567.96 2102.14 566.4"/><path class="cls-1" d="M2091,574.8l1.49-4.44-6.59,1.27.48,3.93Z"/><path class="cls-1" d="M2095.08,574.55l-3.42.6-1,2.85,4.45-.72Z"/><polygon class="cls-1" points="2093.25 568.08 2085.67 569.33 2085.61 569.34 2085.82 571.01 2092.71 569.69 2093.25 568.08"/><path class="cls-1" d="M2089.88,578.11l.95-2.82-4.39.77.31,2.56Z"/><path class="cls-1" d="M2102.58,562.47c-6.91,1.05-12.67,2-17.47,2.77l.44,3.59c3.8-.67,6.69-1.19,9.53-1.75v-.54h.88v.37c2-.39,4.17-.83,6.63-1.35Z"/><path class="cls-1" d="M2083.71,565.47l-9.19,1.53h0l.46,3.66.68-.12,8-1.39Z"/><path class="cls-1" d="M2083.71,579.11v-2.29l-7.77,1.37.27,2.1Z"/><path class="cls-1" d="M2084.38,575.89l1.2-.2-.45-3.92-.74.14Z"/><polygon class="cls-1" points="2083.71 569.67 2075.08 571.17 2075.05 571.17 2075.85 577.5 2083.71 576.17 2083.71 569.67"/><path class="cls-1" d="M1930.83,588.06l5.26-.27c.23-.46.49-.92.68-1.27l-5.94.4Z"/><path class="cls-1" d="M2073.92,580.65l1.26-.2-.24-2.09-1,.18Z"/><polygon class="cls-1" points="2084.38 571.29 2085.05 571.16 2084.85 569.47 2084.38 569.56 2084.38 571.29"/><path class="cls-2" d="M1736.19,754.82h-23.64q-5.16,0-7.14,2.22t-2,8.1v9.24q0,5.64,2,7.68t7.14,2h23.64q5.16,0,7.2-2t2-7.68v-9.24q0-6-2.1-8.16T1736.19,754.82Z"/><path class="cls-2" d="M1565,754.82H1539q-5,0-7.2,2.22t-2.16,8v6.12q0,5.4,2.1,7.38t7.26,2h21.24l5.88,15.12h.84V756.86A1.8,1.8,0,0,0,1565,754.82Z"/><path class="cls-2" d="M1352.32,752.66h-24q-5,0-7.08,2.1t-2,7.5v.36h33.12q3.72,0,3.72-3.84v-2.4a3.82,3.82,0,0,0-.9-2.88A4,4,0,0,0,1352.32,752.66Z"/><path class="cls-2" d="M1921.71,754.82h-26q-1.92,0-1.92,2.4V784.1h28q5.16,0,7.2-2t2-7.68v-9.24q0-5.88-2-8.1T1921.71,754.82Z"/><path class="cls-2" d="M1405.66,776.66a5,5,0,0,0-.9,3.24v2.88a5,5,0,0,0,.9,3.18,3.68,3.68,0,0,0,3.06,1.14H1436q1.32,0,1.32-1.44V775.58h-28.56A3.78,3.78,0,0,0,1405.66,776.66Z"/><path class="cls-2" d="M30.67,691.33v166H2268v-166Zm1257.21,95.53q0,7.92-4.14,12.24t-14.7,4.32h-60.48V784.94h53.88a3.52,3.52,0,0,0,2.64-.78,3.75,3.75,0,0,0,.72-2.58v-1.44a3.37,3.37,0,0,0-.48-2,2.55,2.55,0,0,0-1.92-.78l-40.92-3.48q-7.56-.6-11.16-4.68t-3.6-10.92V753q0-7.2,4-11.34t13-4.14H1284a2.65,2.65,0,0,1,3,3V755.3l-18.72,7h-.84V754.7q0-1-.84-1h-34.32a3.51,3.51,0,0,0-2.52.72,3.31,3.31,0,0,0-.72,2.4v1.8a3,3,0,0,0,.54,2.16,4.09,4.09,0,0,0,2,.72l41.88,4.08a22.46,22.46,0,0,1,7,1.56,12,12,0,0,1,4.44,3.18,11.27,11.27,0,0,1,2.34,4.86,30.37,30.37,0,0,1,.66,6.72ZM1376.32,760q0,7.32-3.24,11.64t-10.8,4.32h-38.52L1320,765.86h-.84v10.2q0,5.64,1.92,7.74t7.2,2.1h46.92v17.52h-51a36.39,36.39,0,0,1-12.42-1.86,21.32,21.32,0,0,1-8.34-5.28,20.19,20.19,0,0,1-4.68-8.22,37.53,37.53,0,0,1-1.44-10.8V763.7a37.55,37.55,0,0,1,1.44-10.8,20.2,20.2,0,0,1,4.68-8.22,21.34,21.34,0,0,1,8.34-5.28,36.42,36.42,0,0,1,12.42-1.86h38q7.56,0,10.8,3.9t3.24,12.18Zm82.8,40.56q0,2.88-2.76,2.88h-57.48a21.07,21.07,0,0,1-6.42-.9,10.88,10.88,0,0,1-4.8-3.06,14,14,0,0,1-3-5.7,32.34,32.34,0,0,1-1-8.82V780q0-9.36,4-13.38t11.22-4h33.48l4.08,9.72h.84V759a5.65,5.65,0,0,0-1.14-4,4.51,4.51,0,0,0-3.42-1.2h-47.4V737.54h61.2q6.48,0,9.54,3.6t3.06,10.44Zm41.52-23.88H1467.4v-16.8h33.24Zm88.2,28.08a37.53,37.53,0,0,1-1.38,10.5,19.88,19.88,0,0,1-4.5,8.1,20.62,20.62,0,0,1-8.28,5.22,37.81,37.81,0,0,1-12.72,1.86h-51V812.06h47.64q4.68,0,6.54-2.1t1.86-6.66V798h-32q-14.76,0-20.88-5.94T1508,774V763.7a37.55,37.55,0,0,1,1.44-10.8,20.2,20.2,0,0,1,4.68-8.22,21.33,21.33,0,0,1,8.34-5.28,36.83,36.83,0,0,1,12.54-1.86h47.88q6,0,6,6Zm85.68-46.92-19.2,7.32h-1v-9q0-1.32-1.2-1.32h-26.52q-2.88,0-4.08,1.32t-1.2,4.56v42.72h-21.72V756q0-8.4,4.38-13.44t14-5h53.4q3.12,0,3.12,3.24Zm92.64,19.44a37.53,37.53,0,0,1-1.44,10.8,20.18,20.18,0,0,1-4.68,8.22,21.28,21.28,0,0,1-8.4,5.28,36.94,36.94,0,0,1-12.48,1.86h-31.68a36.39,36.39,0,0,1-12.42-1.86,21.32,21.32,0,0,1-8.34-5.28,20.19,20.19,0,0,1-4.68-8.22,37.53,37.53,0,0,1-1.44-10.8V763.7A37.72,37.72,0,0,1,1683,753a20.16,20.16,0,0,1,4.68-8.28,21.34,21.34,0,0,1,8.34-5.28,36.42,36.42,0,0,1,12.42-1.86h31.68a37,37,0,0,1,12.48,1.86,21.3,21.3,0,0,1,8.4,5.28,20.15,20.15,0,0,1,4.68,8.28,37.72,37.72,0,0,1,1.44,10.74Zm93.72,0a37.53,37.53,0,0,1-1.44,10.8,20.55,20.55,0,0,1-4.62,8.22,20.76,20.76,0,0,1-8.34,5.28,37.35,37.35,0,0,1-12.6,1.86H1804a36.39,36.39,0,0,1-12.42-1.86,20.78,20.78,0,0,1-8.28-5.28,20.52,20.52,0,0,1-4.62-8.22,37.53,37.53,0,0,1-1.44-10.8V737.54H1799v36.84q0,5.52,2.28,7.62t7.8,2.1h19.8q5.76,0,8-2.22t2.28-7.5V737.54h21.72Zm91.8,0a37.53,37.53,0,0,1-1.44,10.8,20.55,20.55,0,0,1-4.62,8.22,20.76,20.76,0,0,1-8.34,5.28,36.93,36.93,0,0,1-12.48,1.86h-24.48l-6.6-16.8h-.84v43.8H1872V744.5q0-7,6.36-7h47.4a37,37,0,0,1,12.48,1.86,20.78,20.78,0,0,1,8.34,5.28,20.52,20.52,0,0,1,4.62,8.28,37.72,37.72,0,0,1,1.44,10.74Zm29.4,26.16h-21.72V783.5h21.72Zm93.24-26.16a37.53,37.53,0,0,1-1.44,10.8,20.18,20.18,0,0,1-4.68,8.22,21.28,21.28,0,0,1-8.4,5.28,36.94,36.94,0,0,1-12.48,1.86h-31.68a36.39,36.39,0,0,1-12.42-1.86,21.32,21.32,0,0,1-8.34-5.28,20.19,20.19,0,0,1-4.68-8.22,37.53,37.53,0,0,1-1.44-10.8V763.7a37.72,37.72,0,0,1,1.44-10.74,20.16,20.16,0,0,1,4.68-8.28,21.34,21.34,0,0,1,8.34-5.28,36.42,36.42,0,0,1,12.42-1.86h31.68a37,37,0,0,1,12.48,1.86,21.3,21.3,0,0,1,8.4,5.28,20.15,20.15,0,0,1,4.68,8.28,37.72,37.72,0,0,1,1.44,10.74Zm84.6-19.44-19.2,7.32h-1v-9q0-1.32-1.2-1.32H2112q-2.88,0-4.08,1.32t-1.2,4.56v42.72H2085V756q0-8.4,4.38-13.44t14-5h53.4q3.12,0,3.12,3.24Zm87,46.92a37.53,37.53,0,0,1-1.38,10.5,19.88,19.88,0,0,1-4.5,8.1,20.62,20.62,0,0,1-8.28,5.22,37.81,37.81,0,0,1-12.72,1.86h-51V812.06h47.64q4.68,0,6.54-2.1t1.86-6.66V798h-32q-14.76,0-20.88-5.94T2166,774V763.7a37.55,37.55,0,0,1,1.44-10.8,20.2,20.2,0,0,1,4.68-8.22,21.33,21.33,0,0,1,8.34-5.28,36.83,36.83,0,0,1,12.54-1.86h47.88q6,0,6,6Z"/><path class="cls-2" d="M2223,754.82h-25.92q-5,0-7.2,2.22t-2.16,8v6.12q0,5.4,2.1,7.38t7.26,2h21.24l5.88,15.12h.84V756.86A1.8,1.8,0,0,0,2223,754.82Z"/><path class="cls-2" d="M2044.35,754.82h-23.64q-5.16,0-7.14,2.22t-2,8.1v9.24q0,5.64,2,7.68t7.14,2h23.64q5.16,0,7.2-2t2-7.68v-9.24q0-6-2.1-8.16T2044.35,754.82Z"/></svg>